<?xml version="1.0" encoding="UTF-8"?>
<svg height="16px" viewBox="0 0 16 16" width="16px" xmlns="http://www.w3.org/2000/svg">
    <path d="M 4 1 C 2.35 1 1 2.35 1 4 L 1 12 C 1 13.65 2.35 15 4 15 L 12 15 C 13.65 15 15 13.65 15 12 L 15 4 C 15 2.35 13.65 1 12 1 L 4 1 z M 4 2.5 L 12 2.5 C 12.83 2.5 13.5 3.17 13.5 4 L 13.5 12 C 13.5 12.83 12.83 13.5 12 13.5 L 4 13.5 C 3.17 13.5 2.5 12.83 2.5 12 L 2.5 4 C 2.5 3.17 3.17 2.5 4 2.5 z" fill="#2e3436"/>
    <path d="M 5 5 L 5 6.5 L 11 6.5 L 11 5 L 5 5 z M 5 7.5 L 5 11 C 5 11.55 5.45 12 6 12 L 10 12 C 10.55 12 11 11.55 11 11 L 11 7.5 L 5 7.5 z M 7.25 9 L 8.75 9 L 8.75 10.5 L 7.25 10.5 L 7.25 9 z" fill="#2e3436"/>
</svg>
