<svg viewBox="0 0 16 16" xmlns="http://www.w3.org/2000/svg"><path class="prefix__success" color="#000" d="M8 1a7 7 0 100 14A7 7 0 008 1zm3.48 3.783c.912-.026 1.381 1.081.727 1.717L7 11.707 4.093 8.8c-.982-.942.472-2.396 1.414-1.414L7 8.879l3.793-3.793a1 1 0 01.688-.303z" fill="#4e9a06" overflow="visible" style="marker:none"/><path d="M5.469 10.16c-1.63-1.633-1.595-1.594-1.665-1.864-.162-.62.47-1.313 1.11-1.216.081.012.192.047.279.09.135.065.19.115.968.89.453.452.833.821.843.821.01 0 .902-.883 1.983-1.962 2.068-2.066 2.013-2.015 2.26-2.088.131-.04.38-.04.527-.002a.998.998 0 01.682.677c.044.144.05.387.011.53-.066.25.041.135-2.797 2.975a500.514 500.514 0 01-2.676 2.668c-.006 0-.692-.683-1.525-1.519z" fill="#e6e6e6" stroke="#500" stroke-width=".008"/></svg>